<svg width="372" height="230" viewBox="0 0 372 230" fill="none" xmlns="http://www.w3.org/2000/svg">
<path d="M0 40C0 17.9087 17.9086 0 40 0H360C366.627 0 372 5.37258 372 12V189.8C372 211.891 354.091 229.8 332 229.8H12C5.37259 229.8 0 224.427 0 217.8V40Z" fill="white"/>
<path d="M146.865 68.8809V134.14C146.865 138.303 143.468 141.684 139.285 141.684H131.706C127.523 141.684 124.127 138.303 124.127 134.14V68.8809C124.127 64.7174 120.731 61.3366 116.548 61.3366H61.3353C57.1525 61.3366 53.7561 64.7174 53.7561 68.8809V160.911C53.7561 165.074 57.1525 168.455 61.3353 168.455C65.518 168.455 68.9145 165.074 68.9145 160.911V135.605C68.9145 131.442 72.3109 128.061 76.4936 128.061H84.0644C88.2472 128.061 91.6436 131.442 91.6436 135.605V160.911C91.6436 165.074 95.04 168.455 99.2228 168.455H107.881L169.083 168.463C173.266 168.463 176.663 165.083 176.663 160.919V95.6605C176.663 91.497 180.059 88.1162 184.242 88.1162H191.813C195.995 88.1162 199.392 91.497 199.392 95.6605V160.919C199.392 165.083 202.788 168.463 206.971 168.463H261.665C265.847 168.463 269.244 165.083 269.244 160.919V68.8809C269.244 64.7174 265.847 61.3366 261.665 61.3366H154.444C150.261 61.3366 146.865 64.7174 146.865 68.8809ZM84.0644 114.571H76.4936C72.3109 114.571 68.9145 111.19 68.9145 107.027V82.3456C68.9145 78.1821 72.3109 74.8013 76.4936 74.8013H84.0644C88.2472 74.8013 91.6436 78.1821 91.6436 82.3456V107.027C91.6436 111.19 88.2472 114.571 84.0644 114.571ZM231.365 134.131V95.6605C231.365 91.497 234.761 88.1162 238.944 88.1162H245.436C249.618 88.1162 253.015 91.497 253.015 95.6605V134.14C253.015 138.303 249.618 141.684 245.436 141.684H238.944C234.761 141.684 231.365 138.303 231.365 134.14V134.131Z" fill="url(#paint0_linear_5_4)"/>
<path d="M319.972 128.248C319.033 128.248 318.137 128.035 317.284 127.608C316.516 127.181 315.791 126.669 315.108 126.072C314.425 125.389 313.871 124.621 313.444 123.768C313.103 122.915 313.017 122.061 313.188 121.208C313.529 118.733 314.255 116.557 315.364 114.68C316.473 112.803 317.711 111.096 319.076 109.56C320.527 108.024 322.02 106.573 323.556 105.208C325.177 103.757 326.671 102.307 328.036 100.856C329.401 99.4053 330.511 97.8693 331.364 96.248C332.217 94.6267 332.644 92.7493 332.644 90.616C332.644 88.9093 332.388 87.416 331.876 86.136C331.364 84.7707 330.596 83.6613 329.572 82.808C328.633 81.9547 327.481 81.272 326.116 80.76C324.751 80.248 323.172 79.992 321.38 79.992C319.929 79.992 318.479 80.248 317.028 80.76C315.577 81.1867 314.127 81.8693 312.676 82.808C311.737 83.1493 310.671 83.448 309.476 83.704C308.367 83.96 307.257 84.1307 306.148 84.216C305.124 84.3013 304.057 84.216 302.948 83.96C301.924 83.704 301.071 83.2347 300.388 82.552C299.791 81.9547 299.321 81.2293 298.98 80.376C298.639 79.4373 298.468 78.456 298.468 77.432C298.468 76.408 298.639 75.4693 298.98 74.616C299.321 73.6773 299.876 72.9093 300.644 72.312C302.265 71.032 303.801 69.9227 305.252 68.984C306.788 67.96 308.409 67.1067 310.116 66.424C311.908 65.656 313.871 65.1013 316.004 64.76C318.137 64.3333 320.697 64.12 323.684 64.12C327.695 64.12 331.364 64.632 334.692 65.656C338.105 66.68 341.049 68.216 343.524 70.264C345.999 72.312 347.919 74.9147 349.284 78.072C350.735 81.144 351.46 84.728 351.46 88.824C351.46 91.4693 351.076 93.816 350.308 95.864C349.54 97.8267 348.516 99.6613 347.236 101.368C346.041 103.075 344.676 104.653 343.14 106.104C341.689 107.555 340.196 109.005 338.66 110.456C337.209 111.821 335.887 113.272 334.692 114.808C333.497 116.344 332.559 118.008 331.876 119.8C331.364 120.739 330.724 121.72 329.956 122.744C329.273 123.683 328.505 124.579 327.652 125.432C326.799 126.285 325.86 126.968 324.836 127.48C323.812 127.992 322.745 128.248 321.636 128.248H319.972ZM321.636 162.68C318.308 162.68 315.535 161.613 313.316 159.48C311.097 157.261 309.988 154.403 309.988 150.904C309.988 147.405 311.097 144.632 313.316 142.584C315.535 140.451 318.308 139.384 321.636 139.384C325.049 139.384 327.865 140.451 330.084 142.584C332.303 144.632 333.412 147.405 333.412 150.904C333.412 154.403 332.303 157.261 330.084 159.48C327.865 161.613 325.049 162.68 321.636 162.68Z" fill="#FFAC04"/>
<defs>
<linearGradient id="paint0_linear_5_4" x1="161.504" y1="168.463" x2="161.504" y2="61.3366" gradientUnits="userSpaceOnUse">
<stop stop-color="#FFDF41"/>
<stop offset="0.57" stop-color="#FFBD19"/>
<stop offset="1" stop-color="#FFA800"/>
</linearGradient>
</defs>
</svg>
